<svg width="167.001" height="97.202" viewBox="0 0 167.001 97.202" xmlns="http://www.w3.org/2000/svg"><g id="svgGroup" stroke-linecap="round" fill-rule="evenodd" font-size="9pt" stroke="#000" stroke-width="0.25mm" fill="black" style="stroke:#000;stroke-width:0.25mm;fill:black"><path d="M 41.001 34.802 L 29.301 33.802 Q 29.701 31.802 29.701 27.252 A 24.167 24.167 0 0 0 29.055 21.582 A 21.122 21.122 0 0 0 28.201 18.852 Q 26.701 15.002 23.801 15.002 A 3.408 3.408 0 0 0 21.633 15.886 Q 19.269 17.83 17.001 24.052 A 55.469 55.469 0 0 0 13.74 41.204 A 63.628 63.628 0 0 0 13.701 43.452 A 86.791 86.791 0 0 0 13.896 49.482 Q 14.292 55.144 15.489 59.003 A 23.943 23.943 0 0 0 15.701 59.652 A 15.876 15.876 0 0 0 16.666 61.932 Q 17.271 63.075 17.994 63.853 A 4.776 4.776 0 0 0 21.601 65.502 A 6.622 6.622 0 0 0 24.55 64.863 Q 26.343 63.985 27.501 61.902 A 18.044 18.044 0 0 0 28.705 59.174 Q 29.829 56.005 30.501 51.302 A 42.217 42.217 0 0 0 25.866 51.569 A 52.493 52.493 0 0 0 22.801 52.002 L 20.701 42.102 Q 29.347 41.532 42.147 40.059 A 807.043 807.043 0 0 0 43.501 39.902 Q 44.101 45.102 44.101 49.402 Q 44.101 53.68 41.577 60.037 A 59.223 59.223 0 0 1 41.551 60.102 Q 39.001 66.502 33.951 71.402 A 19.255 19.255 0 0 1 29.903 74.459 A 14.227 14.227 0 0 1 22.901 76.302 A 21.507 21.507 0 0 1 14.461 74.696 Q 9.717 72.695 6.251 68.202 Q 1.291 61.775 0.267 51.13 A 60.907 60.907 0 0 1 0.001 45.302 A 77.913 77.913 0 0 1 1.277 30.976 A 67.629 67.629 0 0 1 2.701 24.902 A 47.981 47.981 0 0 1 5.681 16.991 A 35.058 35.058 0 0 1 10.701 9.302 A 20.393 20.393 0 0 1 14.612 5.767 A 14.292 14.292 0 0 1 22.801 3.202 A 18.181 18.181 0 0 1 32.578 6.103 A 24.294 24.294 0 0 1 35.201 8.002 A 14.621 14.621 0 0 1 37.989 11.152 Q 38.972 12.627 39.764 14.461 A 25.943 25.943 0 0 1 40.05 15.152 Q 41.901 19.802 41.901 24.902 Q 41.901 30.002 41.001 34.802 Z M 157.401 23.402 L 167.001 29.002 A 398.209 398.209 0 0 0 161.774 46.705 Q 156.168 67.298 150.386 95.327 A 1248.263 1248.263 0 0 0 150.001 97.202 L 139.001 96.202 A 197.823 197.823 0 0 1 139.932 91.877 Q 141.526 84.827 144.301 74.402 A 96.028 96.028 0 0 1 137.259 56.465 Q 134.748 47.725 133.299 37.549 A 183.349 183.349 0 0 1 132.2 28.002 L 143.401 29.102 Q 144.549 43.19 146.753 54.112 A 132.489 132.489 0 0 0 148.2 60.502 Q 152.801 39.102 157.401 23.402 Z M 76.501 33.402 L 76.501 29.002 Q 76.501 20.143 78.245 13.76 A 30.042 30.042 0 0 1 80.551 7.752 A 20.97 20.97 0 0 1 82.828 4.226 Q 84.331 2.378 86.073 1.339 A 9.349 9.349 0 0 1 90.951 0.002 A 9.843 9.843 0 0 1 98.915 3.783 A 15.322 15.322 0 0 1 100.651 6.452 A 25.567 25.567 0 0 1 102.692 11.972 Q 104.001 17.14 104.001 24.202 L 94.701 23.202 Q 94.701 15.021 92.833 12.816 A 2.079 2.079 0 0 0 91.201 12.002 Q 88.494 12.002 88.229 25.841 A 165.692 165.692 0 0 0 88.201 29.002 L 88.201 31.902 A 249.797 249.797 0 0 1 91.394 31.683 Q 95.951 31.402 99.101 31.402 L 99.101 40.702 A 160.94 160.94 0 0 0 95.838 40.733 Q 92.307 40.805 89.764 41.042 A 42.563 42.563 0 0 0 88.301 41.202 Q 88.301 56.502 89.401 75.202 L 77.701 74.002 Q 76.954 61.119 76.643 45.097 A 1055.646 1055.646 0 0 1 76.601 42.802 Q 74.09 43.188 73.071 43.481 A 6.463 6.463 0 0 0 73.001 43.502 L 70.901 34.502 A 8.962 8.962 0 0 1 71.402 34.372 Q 72.655 34.078 75.924 33.503 A 325.177 325.177 0 0 1 76.501 33.402 Z M 105.201 33.402 L 105.201 29.002 Q 105.201 20.143 106.945 13.76 A 30.042 30.042 0 0 1 109.251 7.752 A 20.97 20.97 0 0 1 111.528 4.226 Q 113.031 2.378 114.773 1.339 A 9.349 9.349 0 0 1 119.651 0.002 A 9.843 9.843 0 0 1 127.615 3.783 A 15.322 15.322 0 0 1 129.351 6.452 A 25.567 25.567 0 0 1 131.392 11.972 Q 132.701 17.14 132.701 24.202 L 123.401 23.202 Q 123.401 15.021 121.533 12.816 A 2.079 2.079 0 0 0 119.901 12.002 Q 117.194 12.002 116.929 25.841 A 165.692 165.692 0 0 0 116.901 29.002 L 116.901 31.902 A 249.797 249.797 0 0 1 120.094 31.683 Q 124.651 31.402 127.801 31.402 L 127.801 40.702 A 160.94 160.94 0 0 0 124.538 40.733 Q 121.007 40.805 118.464 41.042 A 42.563 42.563 0 0 0 117.001 41.202 Q 117.001 56.502 118.101 75.202 L 106.401 74.002 Q 105.654 61.119 105.343 45.097 A 1055.646 1055.646 0 0 1 105.301 42.802 Q 102.79 43.188 101.771 43.481 A 6.463 6.463 0 0 0 101.701 43.502 L 99.601 34.502 A 8.962 8.962 0 0 1 100.102 34.372 Q 101.355 34.078 104.624 33.503 A 325.177 325.177 0 0 1 105.201 33.402 Z M 52.701 73.802 L 52.701 25.802 L 64.101 26.902 L 64.101 74.902 L 52.701 73.802 Z M 52.501 19.302 L 53.501 8.202 L 64.701 9.502 L 63.701 20.702 L 52.501 19.302 Z" vector-effect="non-scaling-stroke"/></g></svg>